<?xml version="1.0" standalone="no"?><!DOCTYPE svg PUBLIC "-//W3C//DTD SVG 1.1//EN" "http://www.w3.org/Graphics/SVG/1.1/DTD/svg11.dtd"><svg t="1523976904828" class="icon" style="" viewBox="0 0 1253 1024" version="1.1" xmlns="http://www.w3.org/2000/svg" p-id="1056" xmlns:xlink="http://www.w3.org/1999/xlink" width="146.8359375" height="120"><defs><style type="text/css"></style></defs><path d="M626.938776 0c465.449796 0 626.938776 478.730449 626.938775 523.128163C1253.877551 556.523102 1092.388571 1024 626.938776 1024S0 567.776653 0 523.128163C0 467.487347 161.48898 0 626.938776 0zM118.533224 571.068082a677.867102 677.867102 0 0 0 89.861225 146.83951C310.219755 844.361143 446.380408 919.510204 622.236735 919.510204c175.051755 0 310.909388-76.486531 413.466122-205.385143a709.590204 709.590204 0 0 0 90.404572-148.218775 525.897143 525.897143 0 0 0 18.066285-45.014204c-4.419918-14.356898-10.866939-31.827592-18.933551-50.656653a725.347265 725.347265 0 0 0-90.550857-154.644898C932.696816 182.982531 797.048163 104.489796 622.226286 104.489796c-175.616 0-311.546776 77.134367-412.786939 207.307755a694.804898 694.804898 0 0 0-90.049306 153.307429c-8.474122 19.978449-15.088327 38.483592-19.403755 53.477877l-0.72098 2.56c4.30498 13.865796 10.887837 31.169306 19.267918 49.925225zM909.061224 512c0 155.815184-126.307265 282.122449-282.122448 282.122449S344.816327 667.815184 344.816327 512s126.307265-282.122449 282.122449-282.122449c43.551347 0 84.803918 9.874286 121.626122 27.491265A94.040816 94.040816 0 1 0 881.569959 390.373878 281.014857 281.014857 0 0 1 909.061224 512z m-459.755102 0c0 98.105469 79.527184 177.632653 177.632654 177.632653 94.688653 0 172.084245-74.093714 177.35053-167.465796-101.104327-5.391673-182.125714-86.413061-187.517388-187.517388C523.399837 339.915755 449.306122 417.300898 449.306122 512z" fill="#42b983" p-id="1057" data-spm-anchor-id="a313x.7781069.0.i2" class="selected"></path></svg>